<?xml version="1.0" encoding="UTF-8" standalone="no"?>
<svg width="293px" height="101px" viewBox="0 0 293 101" version="1.1" xmlns="http://www.w3.org/2000/svg" xmlns:xlink="http://www.w3.org/1999/xlink" xmlns:sketch="http://www.bohemiancoding.com/sketch/ns">
    <!-- Generator: Sketch 3.2.2 (9983) - http://www.bohemiancoding.com/sketch -->
    <title>Slice 2</title>
    <desc>Created with Sketch.</desc>
    <defs></defs>
    <g id="Welcome" stroke="none" stroke-width="1" fill="none" fill-rule="evenodd" sketch:type="MSPage">
        <g id="Imported-Layers" sketch:type="MSLayerGroup" fill="#354653">
            <path d="M93.057506,41.8609767 C92.9315984,12.8305233 84.8982209,0.481511628 47.0376787,0.349976744 C9.35364257,0.220790698 1.06374297,12.697814 1.06374297,41.8609767 C1.06374297,43.7764535 1.10022088,45.6226395 1.17670683,47.3983605 L1.17670683,100.33293 L21.2936867,100.33293 L21.2936867,80.6297093 C27.7620442,82.8293953 36.1578474,83.894593 46.9929639,83.894593 C84.8982209,83.894593 93.1916506,71.811 93.057506,41.8609767 L93.057506,41.8609767 Z M47.0235582,65.3975 C25.9758032,65.3975 21.4278313,58.2206279 21.4278313,41.9748953 C21.4278313,25.7232907 26.0499357,18.7730814 47.0482691,18.8435465 C68.1430924,18.9175349 72.6204618,25.7961047 72.692241,41.9748953 C72.7663735,58.6633837 68.1430924,65.3975 47.0235582,65.3975 L47.0235582,65.3975 Z" id="Fill-1" sketch:type="MSShapeGroup"></path>
            <path d="M193.435305,41.9103023 C193.568273,71.8603256 185.273667,83.9462674 147.37194,83.9462674 C109.600827,83.9462674 101.439189,71.0722907 101.439189,41.9103023 C101.439189,12.748314 109.732618,0.271290698 147.413124,0.400476744 C185.273667,0.533186047 193.307044,12.8786744 193.435305,41.9103023 L193.435305,41.9103023 Z M147.423715,18.8952209 C126.426558,18.822407 121.803277,25.777314 121.803277,42.0265698 C121.803277,58.277 126.354779,65.4503488 147.401357,65.4503488 C168.523245,65.4503488 173.144173,58.7138837 173.067687,42.0265698 C172.999438,25.8489535 168.523245,18.9692093 147.423715,18.8952209 L147.423715,18.8952209 Z" id="Fill-2" sketch:type="MSShapeGroup"></path>
            <path d="M292.971759,52.8758488 C290.826622,74.8480465 280.231554,83.9462674 247.346129,83.9462674 C209.575016,83.9462674 201.416908,71.0722907 201.416908,41.9103023 C201.416908,12.748314 209.705631,0.271290698 247.390843,0.400476744 C280.70106,0.516744186 290.920759,10.0882558 292.984703,32.1602791 L272.115807,32.1602791 C269.965964,22.999814 263.558795,18.9504186 247.39908,18.8952209 C226.400747,18.822407 221.779819,25.777314 221.779819,42.0265698 C221.779819,58.277 226.328968,65.4503488 247.376723,65.4503488 C263.123414,65.4503488 269.700028,61.7074767 271.99343,52.8805465 L292.971759,52.8758488" id="Fill-3" sketch:type="MSShapeGroup"></path>
        </g>
    </g>
</svg>